<?xml version="1.0" encoding="utf-8"?><svg xmlns="http://www.w3.org/2000/svg" xmlns:xlink="http://www.w3.org/1999/xlink" width="2117" height="1007" preserveAspectRatio="xMidYMid" viewBox="0 0 2117 1007" style="z-index:1;margin-right:-1.6px;display:block;background-color:rgb(7, 6, 22);animation-play-state:paused" ><g transform="translate(1058.5,503.5) scale(1,1) translate(-1058.5,-503.5)" style="transform:matrix(1, 0, 0, 1, 0, 0);animation-play-state:paused" ><defs style="animation-play-state:paused" ><path id="path-whzs0kfm9ie-1" d="M-35 -35L35 -35L35 35L-35 35Z" fill="none" stroke="inherit" stroke-width="4.333333333333334" transform="scale(0.3)" style="transform:matrix(0.3, 0, 0, 0.3, 0, 0);animation-play-state:paused" ></path>

  
<path id="path-whzs0kfm9ie-2" d="M0 -37A37 37 0 0 1 0 37A37 37 0 0 1 0 -37" fill="none" stroke="inherit" stroke-width="4.333333333333334" transform="scale(0.3)" style="transform:matrix(0.3, 0, 0, 0.3, 0, 0);animation-play-state:paused" ></path>

  
<path id="path-whzs0kfm9ie-3" d="M0 -34.641L40 34.641L-40 34.641Z" fill="none" stroke="inherit" stroke-width="4.333333333333334" transform="scale(0.3)" style="transform:matrix(0.3, 0, 0, 0.3, 0, 0);animation-play-state:paused" ></path></defs>
<path id="path0" d="M 129.0039420961487 881.5315097316645
c 0 47.52944824148287 -11.629545846320275 13.652075558723803 -25.281621405044078 13.652075558723803
S 78.44069928606055 929.0609579731474 78.44069928606055 881.5315097316645
s 11.629545846320275 -13.652075558723803 25.281621405044078 -13.652075558723803
S 129.0039420961487 834.0020614901816 129.0039420961487 881.5315097316645
z" fill="none" stroke="none" style="animation-play-state:paused" ></path>


<use xlink:href="#path-whzs0kfm9ie-3" x="0" y="0" stroke="#aabbcc" transform="translate(125.8359603881836 905.824951171875)" style="animation-play-state:paused" ></use>
<path id="path1" d="M 184.5537312091765 972.7686764286292
c 0 37.98493046046229 -9.294185112666304 10.910565132260444 -20.20475024492675 10.910565132260444
S 144.14423071932302 1010.7536068890914 144.14423071932302 972.7686764286292
s 9.294185112666304 -10.910565132260444 20.20475024492675 -10.910565132260444
S 184.5537312091765 934.783745968167 184.5537312091765 972.7686764286292
z" fill="none" stroke="none" style="animation-play-state:paused" ></path>


<use xlink:href="#path-whzs0kfm9ie-2" x="0" y="0" stroke="#bbddff" transform="translate(184.5533905029297 972.5953979492188)" style="animation-play-state:paused" ></use>
<path id="path2" d="M 345.65322382552773 44.999645305152555
c 0 49.503143950087754 -12.112471392042748 14.218988155876271 -26.331459547919017 14.218988155876271
S 292.99030472968974 94.50278925524032 292.99030472968974 44.999645305152555
s 12.112471392042748 -14.218988155876271 26.331459547919017 -14.218988155876271
S 345.65322382552773 -4.503498644935199 345.65322382552773 44.999645305152555
z" fill="none" stroke="none" style="animation-play-state:paused" ></path>


<use xlink:href="#path-whzs0kfm9ie-1" x="0" y="0" stroke="#bbddff" transform="translate(298.8041076660156 18.61186981201172)" style="animation-play-state:paused" ></use>
<path id="path3" d="M 435.3225368480783 712.2401256271895
c 0 59.5002719563985 -14.558577180820908 17.09050364705063 -31.64908082787154 17.09050364705063
S 372.0243751923352 771.740397583588 372.0243751923352 712.2401256271895
s 14.558577180820908 -17.09050364705063 31.64908082787154 -17.09050364705063
S 435.3225368480783 652.739853670791 435.3225368480783 712.2401256271895
z" fill="none" stroke="none" style="animation-play-state:paused" ></path>


<use xlink:href="#path-whzs0kfm9ie-1" x="0" y="0" stroke="#ddeeff" transform="translate(433.1800842285156 685.67626953125)" style="animation-play-state:paused" ></use>
<path id="path4" d="M 547.7199849798452 242.4687598721762
c 0 35.939995213095344 -8.793828615970137 10.323190114399727 -19.117018730369864 10.323190114399727
S 509.4859475191055 278.40875508527154 509.4859475191055 242.4687598721762
s 8.793828615970137 -10.323190114399727 19.117018730369864 -10.323190114399727
S 547.7199849798452 206.52876465908088 547.7199849798452 242.4687598721762
z" fill="none" stroke="none" style="animation-play-state:paused" ></path>


<use xlink:href="#path-whzs0kfm9ie-3" x="0" y="0" stroke="#aabbcc" transform="translate(510.2113342285156 255.8797607421875)" style="animation-play-state:paused" ></use>
<path id="path5" d="M 641.6932172919433 228.74062515116927
c 0 19.300475611358944 -4.7224567985239965 5.543753633049909 -10.266210431573906 5.543753633049909
S 621.1607964287955 248.0411007625282 621.1607964287955 228.74062515116927
s 4.7224567985239965 -5.543753633049909 10.266210431573906 -5.543753633049909
S 641.6932172919433 209.44014953981033 641.6932172919433 228.74062515116927
z" fill="none" stroke="none" style="animation-play-state:paused" ></path>


<use xlink:href="#path-whzs0kfm9ie-1" x="0" y="0" stroke="#ddeeff" transform="translate(626.6604614257812 236.82472229003906)" style="animation-play-state:paused" ></use>
<path id="path6" d="M 751.8719130136918 707.8958557897863
c 0 49.37681391238537 -12.081560850902802 14.182701868451117 -26.26426271935392 14.182701868451117
S 699.3433875749839 757.2726697021717 699.3433875749839 707.8958557897863
s 12.081560850902802 -14.182701868451117 26.26426271935392 -14.182701868451117
S 751.8719130136918 658.5190418774009 751.8719130136918 707.8958557897863
z" fill="none" stroke="none" style="animation-play-state:paused" ></path>


<use xlink:href="#path-whzs0kfm9ie-2" x="0" y="0" stroke="#aabbcc" transform="translate(751.6976318359375 698.730712890625)" style="animation-play-state:paused" ></use>
<path id="path7" d="M 852.0752841503518 423.7203921476255
c 0 21.290818357624104 -5.2094555555888755 6.115447826126072 -11.324903381714948 6.115447826126072
S 829.4254773869218 445.0112105052496 829.4254773869218 423.7203921476255
s 5.2094555555888755 -6.115447826126072 11.324903381714948 -6.115447826126072
S 852.0752841503518 402.42957379000137 852.0752841503518 423.7203921476255
z" fill="none" stroke="none" style="animation-play-state:paused" ></path>


<use xlink:href="#path-whzs0kfm9ie-1" x="0" y="0" stroke="#aabbcc" transform="translate(829.6224975585938 429.65625)" style="animation-play-state:paused" ></use>
<path id="path8" d="M 1015.9778334599241 164.2350348678484
c 0 49.415712141070905 -12.091078502602453 14.193874763924622 -26.284953266527076 14.193874763924622
S 963.40792692687 213.65074700891932 963.40792692687 164.2350348678484
s 12.091078502602453 -14.193874763924622 26.284953266527076 -14.193874763924622
S 1015.9778334599241 114.8193227267775 1015.9778334599241 164.2350348678484
z" fill="none" stroke="none" style="animation-play-state:paused" ></path>


<use xlink:href="#path-whzs0kfm9ie-2" x="0" y="0" stroke="#ddeeff" transform="translate(996.882568359375 181.01260375976562)" style="animation-play-state:paused" ></use>
<path id="path9" d="M 1139.3802257869563 592.705828407838
c 0 63.26355922915947 -15.47938151351774 18.17144786369474 -33.65082937721248 18.17144786369474
S 1072.0785670325315 655.9693876369975 1072.0785670325315 592.705828407838
s 15.47938151351774 -18.17144786369474 33.65082937721248 -18.17144786369474
S 1139.3802257869563 529.4422691786785 1139.3802257869563 592.705828407838
z" fill="none" stroke="none" style="animation-play-state:paused" ></path>


<use xlink:href="#path-whzs0kfm9ie-2" x="0" y="0" stroke="#bbddff" transform="translate(1128.4521484375 560.4447021484375)" style="animation-play-state:paused" ></use>
<path id="path10" d="M 1295.3705801838373 506.52331392289545
c 0 56.0354461034052 -13.710800642322546 16.095287710552558 -29.806088352875104 16.095287710552558
S 1235.758403478087 562.5587600263007 1235.758403478087 506.52331392289545
s 13.710800642322546 -16.095287710552558 29.806088352875104 -16.095287710552558
S 1295.3705801838373 450.48786781949025 1295.3705801838373 506.52331392289545
z" fill="none" stroke="none" style="animation-play-state:paused" ></path>


<use xlink:href="#path-whzs0kfm9ie-2" x="0" y="0" stroke="#bbddff" transform="translate(1284.720458984375 478.61700439453125)" style="animation-play-state:paused" ></use>
<path id="path11" d="M 1355.9956892861242 227.7309564069904
c 0 53.13929045672173 -13.00216681387872 15.263413216292411 -28.26558003017113 15.263413216292411
S 1299.464529225782 280.8702468637121 1299.464529225782 227.7309564069904
s 13.00216681387872 -15.263413216292411 28.26558003017113 -15.263413216292411
S 1355.9956892861242 174.59166595026866 1355.9956892861242 227.7309564069904
z" fill="none" stroke="none" style="animation-play-state:paused" ></path>


<use xlink:href="#path-whzs0kfm9ie-1" x="0" y="0" stroke="#bbddff" transform="translate(1300.25927734375 245.5530242919922)" style="animation-play-state:paused" ></use>
<path id="path12" d="M 1447.5623762620673 531.3352878664749
c 0 63.37462226018893 -15.506556510471757 18.203348947075543 -33.7099054575473 18.203348947075543
S 1380.1425653469726 594.7099101266639 1380.1425653469726 531.3352878664749
s 15.506556510471757 -18.203348947075543 33.7099054575473 -18.203348947075543
S 1447.5623762620673 467.960665606286 1447.5623762620673 531.3352878664749
z" fill="none" stroke="none" style="animation-play-state:paused" ></path>


<use xlink:href="#path-whzs0kfm9ie-2" x="0" y="0" stroke="#ddeeff" transform="translate(1380.8927001953125 550.796142578125)" style="animation-play-state:paused" ></use>
<path id="path13" d="M 1562.81636290871 426.71929613039396
c 0 24.893545592784506 -6.090973921638762 7.150273734097677 -13.241247655736439 7.150273734097677
S 1536.333867597237 451.61284172317846 1536.333867597237 426.71929613039396
s 6.090973921638762 -7.150273734097677 13.241247655736439 -7.150273734097677
S 1562.81636290871 401.82575053760945 1562.81636290871 426.71929613039396
z" fill="none" stroke="none" style="animation-play-state:paused" ></path>


<use xlink:href="#path-whzs0kfm9ie-1" x="0" y="0" stroke="#bbddff" transform="translate(1548.6290283203125 419.4691467285156)" style="animation-play-state:paused" ></use>
<path id="path14" d="M 1675.585962853194 570.4719403747956
c 0 61.7877914631263 -15.118289400552177 17.74755712238734 -32.86584652293952 17.74755712238734
S 1609.8542698073147 632.2597318379219 1609.8542698073147 570.4719403747956
s 15.118289400552177 -17.74755712238734 32.86584652293952 -17.74755712238734
S 1675.585962853194 508.68414891166935 1675.585962853194 570.4719403747956
z" fill="none" stroke="none" style="animation-play-state:paused" ></path>


<use xlink:href="#path-whzs0kfm9ie-1" x="0" y="0" stroke="#aabbcc" transform="translate(1633.5421142578125 549.3687744140625)" style="animation-play-state:paused" ></use>
<path id="path15" d="M 1770.7621083212603 437.0108831812629
c 0 46.83964274548995 -11.46076365049222 13.453939937534345 -24.914703588026565 13.453939937534345
S 1720.932701145207 483.8505259267528 1720.932701145207 437.0108831812629
s 11.46076365049222 -13.453939937534345 24.914703588026565 -13.453939937534345
S 1770.7621083212603 390.171240435773 1770.7621083212603 437.0108831812629
z" fill="none" stroke="none" style="animation-play-state:paused" ></path>


<use xlink:href="#path-whzs0kfm9ie-3" x="0" y="0" stroke="#bbddff" transform="translate(1757.439208984375 417.3710021972656)" style="animation-play-state:paused" ></use>
<path id="path16" d="M 1921.999907037009 944.2262669712584
c 0 61.084767316665314 -14.946272854077682 17.545624654786845 -32.491897508864525 17.545624654786845
S 1857.0161120192802 1005.3110342879237 1857.0161120192802 944.2262669712584
s 14.946272854077682 -17.545624654786845 32.491897508864525 -17.545624654786845
S 1921.999907037009 883.1414996545931 1921.999907037009 944.2262669712584
z" fill="none" stroke="none" style="animation-play-state:paused" ></path>


<use xlink:href="#path-whzs0kfm9ie-2" x="0" y="0" stroke="#aabbcc" transform="translate(1892.7818603515625 962.2510375976562)" style="animation-play-state:paused" ></use>
<path id="path17" d="M 2015.1579432550272 859.3329290284694
c 0 23.431594048916253 -5.733262373670997 6.73035148213552 -12.463613855806518 6.73035148213552
S 1990.2307155434144 882.7645230773857 1990.2307155434144 859.3329290284694
s 5.733262373670997 -6.73035148213552 12.463613855806518 -6.73035148213552
S 2015.1579432550272 835.9013349795531 2015.1579432550272 859.3329290284694
z" fill="none" stroke="none" style="animation-play-state:paused" ></path>


<use xlink:href="#path-whzs0kfm9ie-3" x="0" y="0" stroke="#aabbcc" transform="translate(1990.574462890625 867.1354370117188)" style="animation-play-state:paused" ></use></g></svg>